<?xml version="1.0" standalone="no"?>
<!DOCTYPE svg PUBLIC "-//W3C//DTD SVG 20010904//EN"
 "http://www.w3.org/TR/2001/REC-SVG-20010904/DTD/svg10.dtd">
<svg version="1.0" xmlns="http://www.w3.org/2000/svg"
 width="640.000000pt" height="640.000000pt" viewBox="0 0 640.000000 640.000000"
 preserveAspectRatio="xMidYMid meet">
<metadata>
Created by potrace 1.11, written by Peter Selinger 2001-2013
</metadata>
<g transform="translate(0.000000,640.000000) scale(0.100000,-0.100000)"
fill="#000000" stroke="none">
<path d="M1617 4803 c-1 -1 -49 -4 -105 -7 -152 -9 -260 -28 -397 -72 -86 -27
-85 -26 -190 -75 -38 -19 -72 -34 -75 -34 -3 0 -16 -8 -30 -16 -14 -9 -48 -30
-77 -48 -29 -18 -69 -46 -90 -62 -21 -16 -45 -35 -54 -42 -84 -63 -187 -171
-309 -324 -6 -7 -10 -17 -10 -23 0 -5 -4 -10 -10 -10 -5 0 -10 -7 -10 -15 0
-8 -4 -15 -9 -15 -5 0 -13 -10 -17 -22 -3 -13 -12 -30 -19 -38 -8 -8 -15 -22
-17 -30 -2 -8 -6 -17 -9 -20 -23 -17 -113 -249 -142 -365 -15 -58 -19 -76 -34
-180 -5 -27 -8 -122 -7 -210 0 -147 4 -206 19 -275 3 -14 8 -38 10 -55 35
-201 165 -474 320 -671 28 -35 197 -206 227 -229 79 -61 139 -105 145 -105 3
0 14 -6 22 -14 21 -19 211 -117 211 -110 0 4 6 2 13 -4 23 -20 217 -84 292
-97 17 -2 41 -7 55 -10 69 -15 118 -18 265 -19 163 -1 235 5 321 25 27 6 60
13 74 16 14 3 30 6 35 7 85 18 288 104 409 175 69 40 210 147 264 199 44 43
106 70 118 51 3 -5 9 -7 13 -5 4 3 35 5 67 6 200 1 241 1 259 0 98 -4 145 -4
145 0 0 3 37 4 82 2 46 -2 103 -2 128 -1 25 1 52 1 60 0 8 -1 33 -1 55 -1 33
0 48 -7 81 -38 69 -63 146 -127 158 -131 6 -2 13 -7 16 -11 13 -17 144 -95
235 -139 93 -45 257 -105 315 -115 14 -2 32 -7 40 -10 8 -3 31 -8 50 -11 19
-2 60 -8 90 -12 72 -10 341 -10 405 0 28 5 61 10 75 11 14 2 54 11 90 21 36 9
70 18 75 19 35 8 102 31 110 38 5 4 15 8 22 8 21 0 183 80 268 133 44 27 112
74 150 105 89 71 265 249 265 268 0 3 7 12 15 21 48 48 164 251 213 373 30 77
55 158 66 215 1 6 5 16 9 23 5 6 6 12 4 12 -2 0 0 19 5 43 5 23 12 67 16 97 9
70 8 375 -2 415 -4 17 -9 50 -12 74 -2 23 -9 52 -15 62 -5 10 -8 19 -5 19 3 0
-2 24 -11 53 -8 28 -16 57 -18 62 -1 6 -6 19 -10 30 -4 11 -21 54 -37 95 -129
330 -406 633 -736 806 -139 73 -329 139 -457 159 -22 4 -53 8 -70 11 -61 9
-273 19 -301 13 -5 -1 -13 -1 -19 0 -12 3 -109 3 -238 1 -54 -1 -100 0 -103 3
-3 2 -20 1 -38 -3 -19 -4 -39 -4 -46 0 -6 4 -29 4 -51 0 -22 -4 -41 -4 -44 0
-2 4 -25 4 -50 0 -25 -4 -45 -4 -45 -1 0 3 -26 5 -57 3 -77 -4 -64 -4 -188 -3
-60 1 -138 0 -173 -1 -34 -2 -62 -1 -62 2 0 3 -26 4 -57 2 -32 -1 -74 -2 -93
-1 -19 0 -44 0 -55 -1 -25 -2 -13 -2 -175 -1 -74 1 -163 0 -198 -1 -34 -2 -62
-1 -62 2 0 3 -26 4 -57 2 -32 -1 -74 -2 -93 -1 -19 0 -44 0 -55 -1 -11 -1 -24
-1 -30 -1 -5 0 -62 1 -125 1 -63 1 -120 1 -125 0 -6 -1 -12 -2 -15 -1 -16 5
-450 5 -450 0 0 -3 -19 -3 -42 1 -24 3 -57 3 -75 -1 -17 -3 -37 -3 -43 1 -6 4
-29 4 -50 0 -22 -4 -42 -5 -44 -3 -4 5 -136 10 -139 6z m15 -728 c6 6 91 7
114 2 50 -12 95 -66 95 -115 0 -9 0 -50 -1 -90 -1 -41 1 -76 3 -79 3 -2 1 -18
-3 -34 -5 -17 -5 -31 1 -35 5 -3 7 -9 4 -14 -6 -9 -7 -97 -2 -209 l2 -63 128
1 c71 0 132 3 137 6 5 3 11 1 14 -4 4 -6 18 -6 35 -1 16 4 32 6 34 3 3 -2 38
-4 79 -3 40 1 81 1 90 1 28 0 82 -29 96 -52 23 -36 27 -77 18 -174 -1 -11 1
-37 5 -58 3 -20 3 -39 -1 -42 -4 -2 -5 -18 -2 -35 5 -35 -30 -95 -63 -105 -39
-13 -50 -16 -60 -16 -5 -1 -74 0 -152 1 -79 1 -147 -1 -152 -4 -5 -4 -12 -2
-16 4 -4 6 -11 7 -17 4 -5 -3 -47 -6 -93 -5 l-84 2 -1 -138 c-1 -76 -1 -142
-2 -148 0 -5 1 -23 1 -40 1 -16 1 -54 1 -83 -1 -28 1 -56 5 -61 3 -5 2 -12 -3
-15 -5 -3 -7 -19 -4 -36 5 -35 -30 -95 -63 -105 -57 -19 -36 -18 -195 -15
-134 2 -157 7 -189 41 -17 19 -39 98 -33 121 1 4 2 52 2 105 -1 146 0 262 1
271 1 4 1 28 0 53 l-1 47 -92 1 c-51 1 -100 2 -108 2 -8 0 -78 0 -155 0 -77 1
-147 1 -155 1 -65 -1 -114 36 -125 96 -6 30 -7 182 -2 289 1 13 16 37 33 54
38 37 59 40 217 38 6 0 59 0 117 0 58 0 112 0 120 0 8 0 45 0 82 1 56 2 67 5
71 21 3 10 1 19 -5 19 -5 0 -7 4 -3 9 3 6 5 41 5 78 0 37 -1 91 -1 118 -2 291
1 319 39 358 29 30 37 33 104 35 40 2 74 5 76 7 2 2 14 0 27 -5 13 -5 25 -7
27 -5z m3798 -26 c30 -13 57 -27 58 -31 2 -4 9 -8 16 -8 24 0 118 -115 144
-175 22 -51 26 -75 26 -160 0 -74 -4 -108 -16 -130 -9 -16 -19 -37 -22 -45
-21 -55 -119 -152 -183 -180 -68 -31 -88 -34 -184 -34 -74 0 -94 4 -153 32
-77 36 -123 76 -170 147 -46 69 -60 117 -61 209 -2 76 2 96 43 198 18 43 125
146 172 164 8 3 25 10 36 16 71 33 212 32 294 -3z m-652 -953 c28 -10 52 -22
52 -27 0 -5 7 -9 16 -9 9 0 44 -29 77 -63 45 -46 69 -81 86 -126 42 -106 34
-258 -17 -340 -90 -145 -210 -212 -367 -206 -76 2 -184 34 -193 57 -2 4 -10 8
-17 8 -23 0 -117 115 -143 176 -34 81 -38 196 -11 278 43 126 142 222 269 260
60 18 182 14 248 -8z"/>
</g>
</svg>
